<svg xmlns="http://www.w3.org/2000/svg" version="1.1" x="0px" y="0px" width="610.535px" height="227.344px" viewBox="0 0 610.535 227.344" enable-background="new 0 0 610.535 227.344" xml:space="preserve"><path fill="#939598" d="M538.296 50.28c-2.004-2.003-5.252-1.979-7.258 0.024 -1.991 2.002-1.978 5.251 0.028 7.242 1.999 1.99 5.259 1.986 7.245-0.021C540.299 55.519 540.294 52.274 538.296 50.28z"/><path fill="#939598" d="M527.159 62.602c-1.271-1.267-3.317-1.254-4.568 0.008 -1.257 1.27-1.262 3.322 0.009 4.576 1.262 1.258 3.309 1.25 4.566-0.012C528.43 65.902 528.42 63.859 527.159 62.602z"/><path fill="#58595B" d="M503.59 25.27c-1.998-1.995-5.235-1.982-7.222 0.008 -1.981 2.015-1.981 5.251 0.018 7.237 2.006 1.988 5.233 1.975 7.221-0.02C505.604 30.485 505.593 27.256 503.59 25.27z"/><path fill="#CBCCCE" d="M566.014 58.666c-2-1.991-5.232-1.983-7.215 0.02 -1.989 2.003-1.989 5.235 0.014 7.222 2.01 1.986 5.242 1.986 7.22-0.017C568.027 63.892 568.019 60.652 566.014 58.666z"/><path fill="#939598" d="M520.218 45.403c-1.803-1.791-4.71-1.783-6.5 0.008 -1.792 1.808-1.783 4.718 0.012 6.509 1.808 1.783 4.718 1.779 6.509-0.013C522.038 50.109 522.021 47.19 520.218 45.403z"/><path fill="#939598" d="M547.007 41.817c-1.559-1.552-4.083-1.531-5.634 0.02 -1.551 1.551-1.548 4.087 0.017 5.634 1.556 1.539 4.069 1.546 5.633-0.029C548.578 45.892 548.569 43.364 547.007 41.817z"/><path fill="#CBCCCE" d="M592.896 77.081c-1.563-1.556-4.087-1.543-5.639 0.012 -1.56 1.555-1.546 4.083 0.009 5.63 1.562 1.55 4.091 1.547 5.642-0.017C594.463 81.151 594.449 78.623 592.896 77.081z"/><path fill="#CBCCCE" d="M573.271 80.916c-1.56-1.539-4.083-1.539-5.634 0.024 -1.552 1.563-1.535 4.087 0.016 5.634 1.562 1.543 4.083 1.543 5.644-0.02C574.842 85.002 574.837 82.475 573.271 80.916z"/><path fill="#CBCCCE" d="M583.243 69.656c-1.571-1.547-4.088-1.539-5.641 0.024 -1.556 1.556-1.544 4.075 0.019 5.63 1.56 1.535 4.067 1.539 5.638-0.024C584.803 73.73 584.799 71.207 583.243 69.656z"/><path fill="#CBCCCE" d="M608.543 60.13c-1.572-1.546-4.094-1.542-5.646 0.029 -1.555 1.551-1.54 4.079 0.024 5.626 1.554 1.542 4.07 1.546 5.638-0.021C610.101 64.205 610.093 61.682 608.543 60.13z"/><path fill="#58595B" d="M477.701 30.208c0.317-1.872-0.944-3.644-2.797-3.96 -1.868-0.318-3.636 0.927-3.961 2.801 -0.325 1.864 0.928 3.63 2.8 3.952C475.612 33.333 477.387 32.064 477.701 30.208z"/><path fill="#58595B" d="M491.663 17.919c0.313-1.865-0.953-3.64-2.808-3.949 -1.857-0.322-3.632 0.94-3.951 2.805 -0.319 1.86 0.927 3.623 2.798 3.952C489.57 21.045 491.337 19.799 491.663 17.919z"/><path fill="#58595B" d="M461.996 27.021c0.317-1.873-0.944-3.639-2.809-3.952 -1.864-0.318-3.631 0.936-3.956 2.804 -0.318 1.86 0.937 3.635 2.8 3.957C459.912 30.138 461.672 28.885 461.996 27.021z"/><path fill="#CBCCCE" d="M557.395 76.12c-1.562-1.535-4.066-1.535-5.609 0.003 -1.546 1.559-1.546 4.075 0.017 5.634 1.548 1.526 4.062 1.522 5.612-0.024C558.949 80.183 558.949 77.667 557.395 76.12z"/><path fill="#CBCCCE" d="M546.771 62.711c-1.555-1.551-4.062-1.542-5.605 0 -1.552 1.567-1.559 4.074 0.011 5.634 1.556 1.526 4.063 1.526 5.606-0.025C548.326 66.774 548.326 64.25 546.771 62.711z"/><path fill="#939598" d="M526.188 24.574c-2.71-2.703-7.09-2.678-9.792 0.024 -2.695 2.731-2.679 7.111 0.033 9.798 2.702 2.699 7.099 2.686 9.784-0.032C528.921 31.661 528.9 27.277 526.188 24.574z"/><path fill="#58595B" d="M473.418 13.148c-1.059-1.046-2.768-1.038-3.825 0.016 -1.059 1.066-1.051 2.78 0.008 3.838 1.071 1.059 2.78 1.043 3.826-0.011C474.485 15.924 474.485 14.211 473.418 13.148z"/><path fill="#CBCCCE" d="M596.867 67.502c-1.054-1.046-2.769-1.039-3.827 0.021 -1.062 1.062-1.045 2.776 0.014 3.834 1.066 1.062 2.78 1.05 3.826-0.013C597.934 70.278 597.934 68.565 596.867 67.502z"/><path fill="#808285" d="M245.832 150.977c2.486 0.432 4.835-1.248 5.268-3.728 0.416-2.486-1.255-4.835-3.73-5.256 -2.478-0.423-4.843 1.254-5.259 3.73C241.696 148.198 243.36 150.555 245.832 150.977z"/><path fill="#808285" d="M249.242 137.191c1.572 0.269 3.05-0.79 3.313-2.353 0.265-1.564-0.78-3.049-2.348-3.31 -1.564-0.272-3.041 0.782-3.317 2.34C246.629 135.437 247.68 136.918 249.242 137.191z"/><path d="M276.752 149.025c2.47 0.427 4.819-1.233 5.235-3.705 0.416-2.474-1.242-4.828-3.721-5.251 -2.466-0.42-4.811 1.246-5.235 3.717C272.608 146.268 274.272 148.613 276.752 149.025z"/><path fill="#B3B3B3" d="M220.171 165.006c2.475 0.418 4.819-1.242 5.235-3.713 0.418-2.477-1.238-4.824-3.712-5.248 -2.475-0.414-4.828 1.246-5.24 3.721C216.027 162.237 217.691 164.586 220.171 165.006z"/><path fill="#808285" d="M260.188 144.482c2.226 0.382 4.339-1.12 4.727-3.338 0.374-2.231-1.133-4.339-3.355-4.722 -2.231-0.371-4.339 1.123-4.721 3.346C256.464 141.999 257.962 144.111 260.188 144.482z"/><path fill="#808285" d="M240.768 162.731c1.931 0.32 3.761-0.982 4.095-2.906 0.33-1.927-0.973-3.763-2.897-4.088 -1.93-0.321-3.753 0.965-4.088 2.91C237.548 160.565 238.847 162.4 240.768 162.731z"/><path fill="#B3B3B3" d="M204.539 158.033c1.934 0.322 3.762-0.978 4.092-2.911 0.333-1.925-0.97-3.752-2.895-4.082 -1.929-0.322-3.766 0.973-4.086 2.91C201.316 155.867 202.618 157.708 204.539 158.033z"/><path fill="#B3B3B3" d="M209.896 169.022c1.929 0.327 3.761-0.973 4.086-2.896 0.327-1.934-0.975-3.762-2.897-4.091 -1.929-0.318-3.761 0.973-4.086 2.906C206.665 166.866 207.967 168.698 209.896 169.022z"/><path fill="#B3B3B3" d="M190.138 158.024c1.481 0.252 2.891-0.748 3.142-2.23 0.257-1.484-0.749-2.898-2.229-3.151 -1.482-0.243-2.892 0.745-3.143 2.24C187.655 156.364 188.648 157.776 190.138 158.024z"/><path d="M306.116 133.682c0.726 1.521 2.549 2.166 4.062 1.449 1.522-0.729 2.167-2.539 1.441-4.066 -0.716-1.514-2.532-2.162-4.062-1.438C306.036 130.344 305.392 132.176 306.116 133.682z"/><path d="M278.66 133.674c0.725 1.522 2.553 2.165 4.06 1.437 1.518-0.713 2.165-2.544 1.44-4.067 -0.725-1.509-2.535-2.156-4.062-1.437C278.572 130.335 277.933 132.151 278.66 133.674z"/><path fill="#B3B3B3" d="M251.03 176.811c1.925 0.32 3.745-0.961 4.075-2.879 0.329-1.925-0.964-3.754-2.898-4.083 -1.913-0.316-3.733 0.973-4.066 2.89C247.818 174.657 249.105 176.489 251.03 176.811z"/><path fill="#B3B3B3" d="M234.288 175.311c1.929 0.322 3.744-0.968 4.069-2.877 0.325-1.93-0.952-3.758-2.895-4.083 -1.909-0.317-3.731 0.969-4.062 2.886C231.08 173.159 232.366 174.986 234.288 175.311z"/><path fill="#808285" d="M263.466 160.649c3.357 0.576 6.528-1.688 7.106-5.042 0.566-3.358-1.693-6.538-5.04-7.1 -3.353-0.578-6.537 1.686-7.099 5.036C257.857 156.897 260.112 160.076 263.466 160.649z"/><path d="M294.898 134.749c1.303 0.229 2.549-0.664 2.776-1.966 0.219-1.323-0.668-2.562-1.978-2.788 -1.319-0.224-2.557 0.663-2.776 1.971C292.7 133.28 293.58 134.53 294.898 134.749z"/><path d="M86.736 85.873c-1.156-4.721-1.107-9.809 0.407-14.82 0.293-0.985 0.659-1.934 1.059-2.874 0.39 0.105 0.782 0.207 1.181 0.325 5.504 1.653 10.136 4.857 13.555 8.968C98.623 81.974 92.916 84.941 86.736 85.873z"/><rect x="196.919" y="39.053" width="20.183" height="78.115"/><rect x="299.832" y="39.053" width="20.19" height="78.115"/><path d="M78.319 117.103c0 0-0.081-10.083-0.081-15.64V78.254c0-21.62-17.529-39.145-39.151-39.145H21.68c-0.61 0-1.213 0.037-1.815 0.062H0v77.891h20.19V59.039h14.256c12.977 0 23.495 10.519 23.495 23.496v34.568H78.319z"/><path d="M507.115 117.103c0 0-0.082-10.083-0.082-15.64V78.254c0-21.62-17.519-39.145-39.143-39.145h-17.397c-0.619 0-1.221 0.037-1.824 0.062h-19.864v77.891h20.199V59.039h14.246c12.977 0 23.495 10.519 23.495 23.496v34.568H507.115z"/><path d="M107.774 39.109c0 0 0.081 10.083 0.081 15.644v23.203c0 21.626 17.536 39.146 39.158 39.146h17.398c0.619 0 1.213-0.032 1.823-0.062h19.857V39.155H165.91v58.01h-14.255c-12.968 0-23.487-10.515-23.487-23.491V39.109H107.774z"/><path d="M332.689 174.731c-5.959 10.509-19.173 23.945-25.139 23.945 -12.123 0-15.6-15.387-15.053-24.273 1.514-28.699 19.065-35.742 29.787-35.742 4.339 0 8.995 1.619 11.911 5.854l1.197-21.993c0.212-3.684-3.029-2.708-2.924-4.336 0.105-1.407 2.167-1.514 5.194-1.514 8.239 0 7.368 4.55 7.05 9.639l-3.354 65.207c-0.22 3.692 2.915 2.716 2.915 4.343 -0.106 1.405-2.061 1.515-5.195 1.515 -7.262 0-7.579-1.515-7.367-5.857L332.689 174.731zM333.333 159.681c0.44-9.435-5.193-13.111-10.722-13.111 -6.277 0-18.84 3.354-20.149 27.833 -0.318 7.044 2.491 16.357 7.042 16.357C312.964 190.76 332.796 170.827 333.333 159.681z"/><path d="M347.417 174.947c-0.65-14.839 9.965-36.286 28.601-36.286 12.235 0 17 6.826 17.113 13.327 0.438 14.076-23.61 25.986-34.878 30.325 2.166 6.177 6.823 8.668 12.993 8.668 5.097 0 10.405-1.409 17.007-7.146 1.409-1.196 3.249-0.87 5.316 2.052 1.075 1.409 0.636 2.491-0.766 3.9 -5.528 5.635-12.569 8.889-21.883 8.889C358.474 198.676 347.962 192.501 347.417 174.947zM357.057 176.249c8.767-4.006 26.653-14.186 26.329-23.504 -0.105-3.354-2.385-6.175-7.043-6.175C365.621 146.57 355.762 161.954 357.057 176.249z"/><path d="M434.292 151.117c0 4.226-1.841 9.866-5.413 8.887 -4.446-1.192-3.143-3.464-3.143-8.239 0-2.699-1.53-5.629-5.635-5.629 -6.392 0-11.153 5.527-11.153 10.725 0 10.719 26.751 9.424 26.646 27.082 -0.121 9.424-8.562 14.734-18.528 14.734 -6.277 0-13.54-1.949-20.148-7.266 -1.946-1.404-4.219-3.141-2.925-4.978 3.461-4.12 3.682-3.904 6.392-1.844 5.317 4.001 12.13 6.614 16.682 6.614 4.983 0 9.208-2.714 9.208-7.16 0.104-10.828-26.647-9.097-26.541-27.729 0-7.25 6.83-17.654 20.369-17.654C427.681 138.661 434.398 142.669 434.292 151.117z"/><path d="M442.304 145.051c0.211-3.684-2.923-2.707-2.923-4.33 0.114-1.414 2.164-1.523 5.193-1.523 7.042 0 7.481 1.738 7.263 5.854l-2.379 46.466c-0.228 3.146 4.121 2.284 4.121 4.12 -0.114 1.628-3.258 1.737-6.408 1.737 -7.034 0-7.475-2.165-7.253-5.857L442.304 145.051z"/><path d="M506.317 181.447c-1.734 32.28-22.739 43.44-36.4 45.713 -7.041 0.866-18.731-1.079-18.187-11.049 0.325-5.091 4.225-11.262 14.401-18.956 -6.708-3.248-9.533-15.061-9.102-22.752 1.521-28.375 18.416-35.742 30.229-35.742 12.122 0 20.897 7.254 20.247 20.15L506.317 181.447zM496.026 186.866c0.325-3.9 0.757-8.338 0.977-12.463 -3.477 6.824-10.827 15.385-18.415 21.678 -8.987 7.678-17.112 14.939-16.68 20.137 0.112 1.846 1.301 4.123 5.518 4.123C475.771 220.34 493.324 209.94 496.026 186.866zM497.867 159.681c0.438-9.542-5.3-13.111-11.154-13.111 -5.626 0-17.764 2.495-19.392 25.238 -0.424 4.659 0.432 18.952 6.291 18.952C477.074 190.76 497.322 170.827 497.867 159.681z"/><path d="M525.367 163.687c5.861-10.836 18.106-25.026 25.58-25.026 11.366 0 11.479 12.131 10.94 22.747l-1.627 30.109c-0.221 3.692 2.923 2.716 2.923 4.343 -0.114 1.405-2.173 1.515-5.202 1.515 -7.034 0-7.474-1.737-7.263-5.857l1.522-28.262c0.44-8.239 0.44-16.686-3.794-16.686 -5.299 0-23.389 22.091-23.935 31.743l-0.651 13.204c-0.318 5.315-1.515 5.857-7.367 5.857 -1.727 0-2.598-0.109-2.165-5.857l2.393-46.14c0.204-3.574-2.938-2.598-2.938-4.332 0.113-1.302 2.173-1.408 5.209-1.408 7.034 0 7.475 1.73 7.255 5.74L525.367 163.687z"/><path d="M604.882 151.117c0 4.226-1.84 9.866-5.413 8.887 -4.437-1.192-3.135-3.464-3.135-8.239 0-2.699-1.523-5.629-5.641-5.629 -6.392 0-11.162 5.527-11.162 10.725 0 10.719 26.769 9.424 26.654 27.082 -0.106 9.424-8.557 14.734-18.522 14.734 -6.292 0-13.538-1.949-20.148-7.266 -1.954-1.404-4.226-3.141-2.924-4.978 3.469-4.12 3.688-3.904 6.393-1.844 5.308 4.001 12.13 6.614 16.68 6.614 4.976 0 9.209-2.714 9.209-7.16 0.105-10.828-26.646-9.097-26.54-27.729 0-7.25 6.821-17.654 20.361-17.654C598.279 138.661 604.988 142.669 604.882 151.117z"/><path d="M227.774 97.784v19.424h40.959c13.367 0 24.293-10.929 24.293-24.286 0-13.358-10.927-24.293-24.293-24.293h-19.425c-2.728 0-4.86-2.125-4.86-4.856 0-2.731 2.132-4.855 4.86-4.855h37.433V39.484h-37.433c-13.352 0-24.285 10.938-24.285 24.289 0 13.364 10.934 24.294 24.285 24.294h19.425c2.734 0 4.868 2.121 4.868 4.855 0 2.728-2.134 4.861-4.868 4.861H227.774z"/><path d="M410.658 94.715c2.646 0.614 4.9 2.229 6.334 4.546 0.269 0.427 0.138 0.997-0.292 1.262 -0.433 0.264-1.003 0.134-1.271-0.289 -1.164-1.901-3.021-3.224-5.193-3.733 -1.23-0.289-2.997-0.411-4.242-0.155 -0.708 0.716-1.392 1.372-2.084 1.999 3.452 0.443 6.676 2.329 8.336 4.998 0.269 0.428 0.131 0.994-0.285 1.262 -0.439 0.27-1 0.135-1.27-0.293 -1.726-2.785-5.829-4.388-8.963-4.111 -0.879 0.708-1.742 1.339-2.597 1.896 3.516 0.929 5.967 3.127 7.221 5.951 0.211 0.457 0 1.002-0.465 1.213 -0.464 0.205-1 0-1.204-0.472 -1.326-2.972-4.469-4.926-8.263-5.063 -1.107 0.586-2.191 1.066-3.24 1.465 2.107 1.182 4.062 3.249 4.916 5.683 0.155 0.48-0.088 1.01-0.57 1.177 -0.479 0.166-1-0.086-1.18-0.558 -0.984-2.845-3.362-4.804-6.105-5.41 -2.125 0.509-4.127 0.685-5.991 0.685 -1.173 0-2.306-0.069-3.388-0.168 -8.189-0.504-16.104-4.53-21.273-11.69 -3.622-5-5.357-10.795-5.357-16.543 0-0.791 0.025-1.579 0.09-2.37 0.033-0.35 0.065-0.692 0.107-1.038 0.032-0.257 0.064-0.501 0.097-0.753 0 0 0 0 0 0.004 0-0.004 0.008-0.004 0.008-0.013h-0.008c-9.771 15.208-10.136 31.966-10.136 34.262 0 0.159 0 0.257 0 0.273v-0.017 0.017l0.384-0.017c0 0.068 0.015 0.31 0.032 0.65 -0.115 0.074-0.253 0.123-0.383 0.123h-0.009l0.146 4.941h61.916c6.446 0 11.658-5.234 11.658-11.707V74.321c-2.158 8.01-5.595 14.735-10.324 20.092C408.688 94.405 409.811 94.515 410.658 94.715zM442.491 23.544c-0.285-2.397-1.426-4.73-2.938-6.602 -1.377-1.718-3.723-2.455-5.962-2.455 -0.236 0-0.471 0.008-0.699 0.028 -5.081 0.346-8.776 5.154-12.374 8.215 -1.815 1.546-3.525 2.873-5.756 3.761 -0.465 0.187-1.01 0.559-1.327 0.559 -0.163 0-0.261-0.099-0.261-0.359 0-0.037 0-0.078 0.008-0.123 0.09-1.026 1.499-2.267 1.987-3.146 0.749-1.299 1.359-2.663 1.872-4.063 0.92-2.499 1.661-5.28 1.669-7.982 0-2.206-0.496-4.367-1.809-6.289C414.859 2.076 411.196 0 407.53 0c-0.894 0-1.797 0.125-2.669 0.395 -2.215 0.656-4.281 2.097-4.615 4.495 -0.025 0.19-0.042 0.386-0.042 0.582 0 2.459 2.003 5.121 4.446 5.121 0.521 0 1.074-0.13 1.645-0.416 0.87-0.448 1.498-1.645 1.498-2.532 0-0.599-0.285-1.059-0.969-1.059 -0.181 0-0.375 0.029-0.604 0.098 0.114 0.163 0.163 0.342 0.163 0.505 0 0.813-1.212 1.507-2.377 1.507 -1.133 0-2.238-0.635-2.238-2.415 0-0.143 0.008-0.289 0.023-0.448 0.204-2.145 2.328-3.215 4.323-3.215 0.44 0 0.862 0.057 1.263 0.159 2.035 0.521 4.07 1.603 5.568 3.077 1.572 1.538 1.984 3.379 2.344 5.471 0.122 0.708 0.187 1.474 0.196 2.275 0 3.22-1.026 6.876-3.55 8.683 0.7-0.753 1.026-1.718 1.026-2.682 0-1.286-0.57-2.585-1.598-3.436 -0.528-0.439-1.204-0.631-1.903-0.631 -1.588 0-3.306 1.01-3.786 2.524 -0.058 0.195-0.098 0.431-0.098 0.684 0 0.83 0.374 1.795 1.262 1.954 0.219 0.037 0.398 0.049 0.528 0.049 0.311 0 0.425-0.082 0.425-0.22 -0.017-0.366-0.815-1.075-0.921-1.367 -0.057-0.156-0.08-0.31-0.08-0.464 0-0.835 0.79-1.515 1.686-1.547 0.032 0 0.065 0 0.104 0 1.686 0 2.199 1.458 2.199 3.053 0 1.331-0.358 2.768-0.692 3.534 -1.865 4.29-7.921 9.443-13.01 9.443 -0.424 0-0.848-0.036-1.246-0.115 2.182-2.238 3.266-6.235 3.99-9.224 0.553-2.271 0.976-4.754 0.976-7.213 0-2.377-0.381-4.738-1.425-6.843 -1.758-3.578-4.844-5.284-8.263-5.284 -1.595 0-3.273 0.378-4.942 1.111 -2.156 0.965-3.573 2.532-4.411 4.726 -0.196 0.534-0.637 2.015-0.637 3.22 0 0.952 0.277 1.738 1.147 1.738 0.033 0 0.059 0 0.083 0 0.529-0.025 0.83-0.688 0.83-1.193 0-0.09-0.009-0.167-0.017-0.249 -0.261-0.948-0.773-1.258-0.757-2.088 0-0.138 0.017-0.305 0.049-0.489 0.243-1.241 0.863-2.482 1.848-3.305 1.32-1.099 3.354-1.806 5.293-1.806 1.311 0 2.579 0.325 3.565 1.066 3.206 2.438 4.566 6.072 4.566 9.875 0 0.814-0.065 1.628-0.179 2.442 -0.514 3.473-2.352 6.721-5.283 8.724 -1.026 0.695-2.135 1.257-3.265 1.746 -0.708 0.31-1.711 0.838-2.533 0.838 -0.097 0-0.204-0.007-0.301-0.023 0.789-1.254 1.954-1.982 2.947-2.997 0.929-0.952 1.692-2.32 2.312-3.485 0.878-1.619 1.36-3.313 1.36-5.055 0-0.904-0.13-1.811-0.399-2.731 -0.546-1.893-2.517-4.226-4.526-4.226 -0.75 0-1.507 0.325-2.199 1.127 -0.456 0.525-0.74 1.254-0.74 1.962 0 0.545 0.163 1.083 0.562 1.506 0.276 0.293 0.888 0.5 1.459 0.5 0.683 0 1.325-0.281 1.358-1.01 0-0.003 0-0.012 0-0.012 -0.008-0.545-1.05-1.05-1.05-1.559 0-0.208 0.178-0.419 0.684-0.635 0.163-0.069 0.31-0.102 0.464-0.102 1.197 0 1.791 2.133 1.823 3.021 0 0.062 0 0.118 0 0.179 0 2.435-1.734 4.567-3.159 6.358 -3.988 5.007-8.905 8.353-14.352 11.561 -1.824 1.066-3.583 2.113-5.471 2.752h-23.285c-6.448 0-11.665 5.247-11.665 11.715v53.023c0 0.098 0.015 0.188 0.015 0.29 0.032-0.252 0.041-0.509 0.074-0.778 0.146-1.562 0.374-3.354 0.691-5.316 1.75-10.644 6.44-26.381 18.979-39.407 8.921-9.285 20.352-15.693 34.137-19.169 0.227-0.057 0.454-0.11 0.683-0.178 0.243-0.057 0.513-0.114 0.757-0.179h-1.426c0.22-0.008 0.433-0.021 0.652-0.033 0.438-0.033 0.879-0.065 1.326-0.089 7.319-1.669 15.281-2.549 23.854-2.609l1.922-0.013c3.899-2.162 9.915-12.293 10.811-13.693 1.775-2.809 4.469-4.202 7.107-4.202 3.004 0 5.951 1.804 7.408 5.349 0.407 0.985 0.872 2.272 0.872 3.448 0 0.997-0.335 1.917-1.271 2.515 -0.479 0.314-1.026 0.481-1.563 0.481 -0.903 0-1.727-0.468-1.979-1.454 -0.609 0.195-0.845 0.554-0.845 0.949 0 0.765 0.894 1.665 1.733 1.835 0.359 0.082 0.716 0.114 1.05 0.114 3.192 0 5.268-3.175 5.26-6.26C442.539 24.065 442.515 23.804 442.491 23.544zM412.122 47.577c-8.278 0.065-15.842 0.961-22.688 2.67 0.244 0.057 0.504 0.117 0.757 0.175l0 0c0.31 0.078 0.595 0.15 0.895 0.236l0 0c8.223 2.263 15.314 8.227 18.651 16.758 0.692 1.758 1.182 3.542 1.515 5.341 0.064 0.375 0.123 0.732 0.171 1.099 0.025 0.26 0.059 0.521 0.091 0.781 0.073-0.257 0.145-0.5 0.219-0.753 0.114-0.354 0.204-0.72 0.311-1.086 1.667-6.122 2.515-13.136 2.515-21.024 0-1.246-0.025-2.503-0.073-3.79 0-0.021 0-0.029 0-0.041 0-0.131 0.016-0.261 0.041-0.379L412.122 47.577z"/><path opacity="0.54" fill="#FFFFFF" d="M384.712 70.331c2.591 4.245 3.732 9.256 3.201 14.214 0.005 0 0.006 0 0.011 0 0.541-4.969-0.602-9.991-3.197-14.246 -3.888 1.81-7.301 4.733-9.71 8.655 -0.169 0.279-0.333 0.565-0.49 0.85l0.005 0.005c0.16-0.278 0.322-0.554 0.485-0.828C377.421 75.058 380.834 72.141 384.712 70.331z"/><path opacity="0.54" fill="#9D9FA2" d="M371.989 102.34c0.036 0.021 0.065 0.04 0.094 0.056 -0.01-0.058-0.016-0.115-0.028-0.174L371.989 102.34z"/><path fill="#808285" d="M372.809 78.337c-0.075-0.076-0.149-0.15-0.23-0.229 -0.539-0.52-1.045-1.064-1.515-1.635 -0.242-0.283-0.477-0.568-0.701-0.865 -0.445-0.583-0.854-1.185-1.237-1.804 -0.383-0.62-0.735-1.258-1.053-1.905 -0.296-0.603-0.559-1.207-0.797-1.826 -0.411-1.057-0.734-2.144-0.98-3.246 -0.122-0.544-0.223-1.094-0.304-1.647 -0.058-0.403-0.105-0.815-0.146-1.224 -0.181 0.238-0.356 0.486-0.53 0.731 -0.203 0.291-0.404 0.586-0.591 0.89 -0.529 0.839-0.993 1.717-1.401 2.633 -0.14 0.327-0.279 0.66-0.415 0.995 -0.339 0.903-0.623 1.835-0.847 2.792 -0.076 0.354-0.157 0.708-0.215 1.066 -0.161 0.928-0.263 1.874-0.306 2.842 -0.016 0.276-0.025 0.556-0.025 0.835 0 0.086 0.007 0.175 0.007 0.263 0.019 0.942 0.083 1.875 0.215 2.785 0.055 0.366 0.118 0.729 0.186 1.093 0.182 0.905 0.425 1.784 0.721 2.646 0.113 0.352 0.245 0.701 0.386 1.048 0.332 0.836 0.72 1.646 1.157 2.424 0.181 0.332 0.38 0.648 0.575 0.967 0.477 0.752 0.992 1.473 1.553 2.152 0.237 0.29 0.486 0.575 0.748 0.854 0.584 0.64 1.213 1.248 1.883 1.814 0.287 0.244 0.58 0.482 0.88 0.713 0.693 0.524 1.413 1.005 2.165 1.443 0.036 0.017 0.065 0.035 0.094 0.055 -0.01-0.06-0.016-0.118-0.028-0.175 -0.208-1.141-0.329-2.296-0.368-3.457 -0.013-0.676-0.003-1.353 0.04-2.034 0.052-0.733 0.127-1.468 0.247-2.194 0.129-0.739 0.279-1.48 0.48-2.207 0.092-0.35 0.192-0.696 0.302-1.038 0.236-0.727 0.502-1.447 0.813-2.155 0.034-0.082 0.074-0.161 0.111-0.242 0.26-0.572 0.537-1.136 0.846-1.695C373.926 79.342 373.352 78.85 372.809 78.337z"/><path fill="#95979A" d="M402.172 69.103c-0.389-0.993-0.849-1.955-1.376-2.869 -0.177-0.298-0.355-0.593-0.542-0.883 -0.583-0.905-1.229-1.761-1.941-2.564 -0.227-0.258-0.459-0.505-0.696-0.752 -0.757-0.772-1.568-1.49-2.436-2.142 -0.276-0.205-0.555-0.407-0.838-0.594 -0.896-0.606-1.845-1.146-2.831-1.615 -0.31-0.143-0.619-0.282-0.939-0.413 -0.993-0.407-2.029-0.745-3.103-1.002 -0.327-0.078-0.661-0.151-0.995-0.213 -1.053-0.196-2.132-0.318-3.233-0.354 -0.233-0.004-0.46-0.016-0.691-0.016 -0.114 0-0.219 0.004-0.328 0.006 -1.101 0.018-2.169 0.12-3.216 0.298 -0.345 0.055-0.684 0.121-1.016 0.192 -1.047 0.234-2.071 0.545-3.059 0.927 -0.318 0.127-0.642 0.26-0.957 0.399 -0.966 0.435-1.892 0.935-2.77 1.501 -0.298 0.19-0.585 0.381-0.868 0.583 -0.16 0.116-0.315 0.226-0.47 0.338 0.257 0.052 0.501 0.105 0.753 0.167 0.509 0.118 1.021 0.257 1.521 0.414 1.119 0.349 2.227 0.792 3.309 1.326 0.564 0.275 1.113 0.58 1.659 0.908 0.05 0.028 0.094 0.058 0.142 0.083 0.646 0.396 1.256 0.827 1.843 1.27 0.562 0.429 1.102 0.877 1.615 1.347 0.324 0.303 0.645 0.613 0.949 0.931 0.505 0.521 0.982 1.066 1.431 1.63 0.108 0.137 0.218 0.279 0.323 0.419 0.427 0.566 0.831 1.146 1.202 1.741v0.003c0.026 0.042 0.057 0.083 0.088 0.129 0.618-0.292 1.254-0.556 1.901-0.785 0.174-0.064 0.35-0.125 0.523-0.179 0.729-0.243 1.469-0.451 2.218-0.619 0.497-0.109 0.992-0.201 1.491-0.278 0.721-0.108 1.44-0.188 2.171-0.228 0.912-0.053 1.826-0.048 2.736 0.012 0.634 0.036 1.262 0.107 1.891 0.2 1.305 0.195 2.601 0.507 3.878 0.938 0.297 0.098 0.59 0.209 0.877 0.321C402.322 69.484 402.243 69.293 402.172 69.103z"/><path fill="#D1D3D4" d="M400.794 80.825c-0.505 0.336-1.026 0.644-1.554 0.936 -0.853 0.463-1.726 0.874-2.618 1.222 -0.652 0.256-1.313 0.479-1.982 0.673 -0.55 0.154-1.095 0.294-1.656 0.41 -0.726 0.153-1.456 0.269-2.193 0.349 -0.241 0.028-0.495 0.051-0.74 0.069 -0.707 0.052-1.414 0.073-2.126 0.062 -0.005 0.02-0.006 0.041-0.01 0.06 -0.006 0.053-0.013 0.102-0.017 0.148 -0.082 0.706-0.195 1.412-0.349 2.114 -0.054 0.247-0.118 0.49-0.18 0.736 -0.17 0.697-0.382 1.383-0.626 2.065 -0.188 0.517-0.392 1.03-0.616 1.539 -0.271 0.618-0.575 1.232-0.909 1.836 -0.158 0.293-0.326 0.584-0.504 0.874 -0.308 0.509-0.64 1-0.985 1.474 -0.354 0.489-0.726 0.959-1.109 1.41 -0.289 0.338-0.584 0.665-0.891 0.979 0.279 0.011 0.562 0.02 0.847 0.02 0.043 0 0.082-0.001 0.125-0.004 0.38 0 0.754-0.013 1.132-0.035 0.888-0.051 1.763-0.162 2.619-0.324 0.37-0.064 0.738-0.145 1.103-0.234 0.874-0.212 1.728-0.477 2.555-0.794 0.35-0.135 0.694-0.28 1.039-0.431 0.826-0.373 1.637-0.794 2.41-1.266 0.312-0.194 0.627-0.396 0.932-0.608 0.766-0.526 1.491-1.1 2.177-1.718 0.275-0.248 0.542-0.499 0.802-0.76 0.67-0.667 1.291-1.383 1.862-2.135 0.223-0.292 0.438-0.585 0.642-0.888 0.545-0.792 1.034-1.63 1.466-2.497 0.158-0.324 0.313-0.652 0.457-0.986 0.387-0.896 0.717-1.832 0.985-2.79 0.089-0.341 0.178-0.689 0.255-1.038 0.181-0.847 0.323-1.71 0.4-2.588C402.671 79.485 401.757 80.197 400.794 80.825z"/><path fill="#58595B" d="M384.727 70.299c-0.031-0.046-0.062-0.087-0.088-0.129v-0.003c-0.371-0.596-0.775-1.175-1.202-1.741 -0.105-0.14-0.215-0.282-0.323-0.419 -0.448-0.564-0.926-1.109-1.431-1.63 -0.305-0.318-0.625-0.628-0.949-0.931 -0.514-0.47-1.054-0.918-1.615-1.347 -0.587-0.443-1.197-0.874-1.843-1.27 -0.048-0.025-0.092-0.055-0.142-0.083 -0.546-0.328-1.095-0.632-1.659-0.908 -1.082-0.535-2.189-0.977-3.309-1.326 -0.499-0.157-1.012-0.295-1.521-0.414 -0.252-0.062-0.496-0.115-0.753-0.167 -0.67 0.511-1.311 1.059-1.913 1.641 -0.254 0.246-0.508 0.499-0.747 0.752 -0.489 0.523-0.953 1.065-1.388 1.633 0.041 0.409 0.089 0.82 0.146 1.224 0.081 0.554 0.182 1.103 0.304 1.647 0.246 1.102 0.569 2.189 0.98 3.246 0.238 0.619 0.501 1.223 0.797 1.826 0.317 0.647 0.67 1.285 1.053 1.905 0.383 0.619 0.792 1.222 1.237 1.804 0.225 0.296 0.459 0.582 0.701 0.865 0.47 0.571 0.976 1.115 1.515 1.635 0.081 0.079 0.155 0.153 0.23 0.229 0.543 0.513 1.117 1.004 1.718 1.466 0.157-0.284 0.321-0.57 0.49-0.85C377.426 75.032 380.839 72.109 384.727 70.299z"/><path fill="#58595B" d="M387.913 84.545c0 0.005 0 0.016-0.002 0.024 -0.011 0-0.028 0-0.041 0 -0.036-0.005-0.074-0.006-0.111-0.006 -3.843-0.097-7.719-1.167-11.225-3.328 -0.705-0.433-1.369-0.908-2.01-1.403 0.002-0.01 0.007-0.017 0.007-0.024l-0.005-0.005c-0.309 0.559-0.586 1.123-0.846 1.695 -0.037 0.081-0.077 0.16-0.111 0.242 -0.312 0.708-0.577 1.428-0.813 2.155 -0.109 0.341-0.21 0.688-0.302 1.038 -0.201 0.726-0.352 1.468-0.48 2.207 -0.12 0.726-0.195 1.46-0.247 2.194 -0.043 0.681-0.053 1.358-0.04 2.034 0.039 1.161 0.16 2.316 0.368 3.457 0.013 0.057 0.019 0.115 0.028 0.175 0.299 0.17 0.599 0.333 0.902 0.493 0.764 0.392 1.558 0.742 2.38 1.04 0.349 0.127 0.707 0.249 1.074 0.36 0.82 0.247 1.663 0.445 2.528 0.595 0.366 0.066 0.745 0.115 1.125 0.161 0.537 0.062 1.088 0.107 1.636 0.131 0.307-0.314 0.602-0.641 0.891-0.979 0.384-0.451 0.756-0.921 1.109-1.41 0.346-0.474 0.678-0.965 0.985-1.474 0.178-0.289 0.346-0.581 0.504-0.874 0.334-0.604 0.638-1.218 0.909-1.836 0.225-0.508 0.429-1.021 0.616-1.539 0.244-0.682 0.456-1.369 0.626-2.065 0.062-0.247 0.126-0.489 0.18-0.736 0.153-0.702 0.267-1.409 0.349-2.114 0.004-0.046 0.011-0.095 0.017-0.148 0.004-0.019 0.005-0.04 0.01-0.06C387.919 84.545 387.918 84.545 387.913 84.545z"/><path opacity="0.54" fill="#FFFFFF" d="M387.911 84.57c-0.011 0-0.028 0-0.041 0l0.044 0.035c0.004-0.019 0.005-0.04 0.01-0.06 -0.005 0-0.006 0-0.011 0C387.913 84.551 387.913 84.561 387.911 84.57z"/><path fill="#A7A9AC" d="M403.468 74.163c-0.041-0.349-0.094-0.697-0.153-1.039 -0.18-1.045-0.435-2.059-0.763-3.042 -0.043-0.132-0.088-0.269-0.139-0.399 -0.287-0.111-0.58-0.223-0.877-0.321 -1.277-0.431-2.573-0.743-3.878-0.938 -0.629-0.093-1.257-0.165-1.891-0.2 -0.91-0.061-1.824-0.065-2.736-0.012 -0.73 0.041-1.45 0.12-2.171 0.228 -0.499 0.077-0.994 0.168-1.491 0.278 -0.749 0.168-1.488 0.376-2.218 0.619 -0.174 0.054-0.35 0.115-0.523 0.179 -0.647 0.229-1.283 0.493-1.901 0.785 2.596 4.255 3.738 9.277 3.197 14.246 0.712 0.011 1.419-0.01 2.126-0.062 0.245-0.018 0.499-0.041 0.74-0.069 0.737-0.08 1.468-0.196 2.193-0.349 0.562-0.115 1.106-0.256 1.656-0.41 0.669-0.195 1.33-0.417 1.982-0.673 0.893-0.349 1.766-0.759 2.618-1.222 0.527-0.292 1.049-0.6 1.554-0.936 0.963-0.628 1.877-1.34 2.741-2.121 0.014-0.137 0.023-0.271 0.034-0.405 0.025-0.353 0.04-0.705 0.049-1.061 0.006-0.165 0.012-0.331 0.012-0.498C403.63 75.868 403.573 75.007 403.468 74.163z"/><path fill="#383839" d="M387.911 84.57c0.002-0.009 0.002-0.019 0.002-0.024 0.531-4.958-0.61-9.969-3.201-14.214 -3.878 1.81-7.291 4.727-9.695 8.649 -0.163 0.274-0.325 0.55-0.485 0.828 0 0.007-0.005 0.015-0.007 0.024 0.641 0.495 1.305 0.97 2.01 1.403 3.506 2.161 7.382 3.231 11.225 3.328 0.037 0 0.075 0.001 0.111 0.006C387.883 84.57 387.9 84.57 387.911 84.57z"/><path fill="#FFFFFF" d="M399.463 88.09c0.007-0.011 0.015-0.017 0.019-0.032L387.82 75.327l13.624 9.302c0.011-0.021 0.021-0.041 0.034-0.064l-13.243-9.824 14.427 6.239c0.003-0.031 0.013-0.064 0.02-0.097l-14.142-6.802 14.593 3.234c0.002-0.046 0.004-0.088 0.004-0.135l-14.426-3.804 14.236 0.397c-0.01-0.054-0.014-0.108-0.024-0.161l-14.182-0.958 13.427-2.203c-0.021-0.057-0.042-0.115-0.062-0.176l-13.465 1.662 12.241-4.505c-0.034-0.065-0.059-0.126-0.093-0.186l-12.388 4.01 10.782-6.514c-0.047-0.059-0.096-0.114-0.142-0.176l-10.998 6.062 9.086-8.195c-0.055-0.057-0.115-0.111-0.17-0.167l-9.391 7.815 7.229-9.581c-0.064-0.049-0.131-0.096-0.2-0.143L387 69.637l5.236-10.674c-0.074-0.042-0.146-0.077-0.216-0.118l-5.659 10.458 3.115-11.47c-0.075-0.027-0.157-0.054-0.233-0.076l-3.58 11.345 0.903-11.968c-0.08-0.015-0.16-0.027-0.242-0.041l-1.385 11.938 -1.401-12.147c-0.039-0.002-0.073-0.002-0.118-0.002 -0.038 0-0.076 0-0.116 0.002l0.921 12.217 -3.787-11.998c-0.073 0.008-0.146 0.027-0.221 0.04l3.313 12.159 -6.197-11.458c-0.067 0.021-0.133 0.043-0.199 0.067l5.752 11.724 -8.606-10.509c-0.058 0.029-0.109 0.057-0.166 0.086l8.202 10.868 -10.932-9.101c-0.046 0.036-0.089 0.069-0.129 0.102l10.587 9.546 -13.09-7.216c-0.023 0.032-0.054 0.072-0.09 0.102l12.816 7.741 -14.948-4.843c-0.016 0.027-0.035 0.06-0.053 0.084l14.768 5.439 -16.389-2.022c-0.004 0.021-0.012 0.043-0.016 0.066l16.299 2.674 -17.245 1.165c-0.005 0.013-0.009 0.024-0.009 0.038l17.297-0.481 -17.438 4.599c0 0 0 0.005 0 0.009l17.603-3.903 -16.432 7.9 16.735-7.24 -14.648 10.867 15.066-10.282 -12.319 13.448 12.846-12.947 -9.558 15.532L383.2 76.219l-6.444 17.061 7.115-16.793 -3.095 17.973 3.808-17.832 0.355 18.232 0.365-18.232 3.805 17.832 -3.093-17.973 7.109 16.793 -6.439-17.061 10.04 14.959c0-0.001 0.004-0.001 0.005-0.004l-9.433-15.346L399.463 88.09z"/></svg>